<mxfile host="Electron" agent="Mozilla/5.0 (Windows NT 10.0; Win64; x64) AppleWebKit/537.36 (KHTML, like Gecko) draw.io/28.1.2 Chrome/138.0.7204.243 Electron/37.4.0 Safari/537.36" version="28.1.2">
  <diagram name="Page-1" id="rHWGbH1V4k9ewV5q8pmI">
    <mxGraphModel dx="1066" dy="802" grid="1" gridSize="10" guides="1" tooltips="1" connect="1" arrows="1" fold="1" page="1" pageScale="1" pageWidth="1100" pageHeight="850" math="0" shadow="0">
      <root>
        <mxCell id="0" />
        <mxCell id="1" parent="0" />
        <mxCell id="6lcj-8eWFZH5m0sCkd4W-1" value="Data Flow Diagram" style="text;html=1;align=left;verticalAlign=middle;whiteSpace=wrap;rounded=0;fontSize=24;fontStyle=1" parent="1" vertex="1">
          <mxGeometry x="50" y="30" width="300" height="30" as="geometry" />
        </mxCell>
        <mxCell id="6lcj-8eWFZH5m0sCkd4W-2" value="" style="rounded=0;whiteSpace=wrap;html=1;dashed=1;strokeColor=#CCCCCC;fillColor=none;" parent="1" vertex="1">
          <mxGeometry x="100" y="150" width="140" height="330" as="geometry" />
        </mxCell>
        <mxCell id="6lcj-8eWFZH5m0sCkd4W-3" value="&lt;font style=&quot;font-size: 18px;&quot;&gt;Sources&lt;/font&gt;" style="rounded=0;whiteSpace=wrap;html=1;fillColor=default;strokeColor=none;fontStyle=1" parent="1" vertex="1">
          <mxGeometry x="130" y="130" width="80" height="30" as="geometry" />
        </mxCell>
        <mxCell id="6lcj-8eWFZH5m0sCkd4W-20" style="edgeStyle=orthogonalEdgeStyle;rounded=0;orthogonalLoop=1;jettySize=auto;html=1;entryX=0;entryY=0.5;entryDx=0;entryDy=0;" parent="1" source="6lcj-8eWFZH5m0sCkd4W-4" target="6lcj-8eWFZH5m0sCkd4W-14" edge="1">
          <mxGeometry relative="1" as="geometry" />
        </mxCell>
        <mxCell id="6lcj-8eWFZH5m0sCkd4W-21" style="edgeStyle=orthogonalEdgeStyle;rounded=0;orthogonalLoop=1;jettySize=auto;html=1;entryX=0;entryY=0.5;entryDx=0;entryDy=0;" parent="1" source="6lcj-8eWFZH5m0sCkd4W-4" target="6lcj-8eWFZH5m0sCkd4W-16" edge="1">
          <mxGeometry relative="1" as="geometry" />
        </mxCell>
        <mxCell id="6lcj-8eWFZH5m0sCkd4W-22" style="edgeStyle=orthogonalEdgeStyle;rounded=0;orthogonalLoop=1;jettySize=auto;html=1;entryX=0;entryY=0.5;entryDx=0;entryDy=0;" parent="1" source="6lcj-8eWFZH5m0sCkd4W-4" target="6lcj-8eWFZH5m0sCkd4W-15" edge="1">
          <mxGeometry relative="1" as="geometry" />
        </mxCell>
        <mxCell id="YMN9jpiuJs0Im6TFIcbc-2" style="edgeStyle=orthogonalEdgeStyle;rounded=0;orthogonalLoop=1;jettySize=auto;html=1;entryX=0;entryY=0.5;entryDx=0;entryDy=0;" parent="1" source="6lcj-8eWFZH5m0sCkd4W-4" target="YMN9jpiuJs0Im6TFIcbc-1" edge="1">
          <mxGeometry relative="1" as="geometry" />
        </mxCell>
        <mxCell id="6lcj-8eWFZH5m0sCkd4W-4" value="" style="image;aspect=fixed;html=1;points=[];align=center;fontSize=12;image=img/lib/azure2/general/Folder_Blank.svg;" parent="1" vertex="1">
          <mxGeometry x="142" y="247" width="61.61" height="50" as="geometry" />
        </mxCell>
        <mxCell id="6lcj-8eWFZH5m0sCkd4W-6" value="&lt;span style=&quot;font-size: 10px;&quot;&gt;Airlines&lt;/span&gt;" style="text;html=1;align=center;verticalAlign=middle;whiteSpace=wrap;rounded=0;fontStyle=1" parent="1" vertex="1">
          <mxGeometry x="140" y="308" width="60" height="20" as="geometry" />
        </mxCell>
        <mxCell id="6lcj-8eWFZH5m0sCkd4W-12" value="&lt;font style=&quot;font-size: 14px;&quot;&gt;Bronze Layer&lt;/font&gt;" style="rounded=1;whiteSpace=wrap;html=1;fillColor=#ffcd28;strokeColor=#d79b00;gradientColor=#ffa500;fontStyle=1" parent="1" vertex="1">
          <mxGeometry x="320" y="130" width="120" height="20" as="geometry" />
        </mxCell>
        <mxCell id="6lcj-8eWFZH5m0sCkd4W-13" value="" style="rounded=1;whiteSpace=wrap;html=1;fillColor=none;strokeColor=#d79b00;gradientColor=#ffa500;" parent="1" vertex="1">
          <mxGeometry x="280" y="162" width="200" height="318" as="geometry" />
        </mxCell>
        <mxCell id="6lcj-8eWFZH5m0sCkd4W-34" style="edgeStyle=orthogonalEdgeStyle;rounded=0;orthogonalLoop=1;jettySize=auto;html=1;entryX=0;entryY=0.5;entryDx=0;entryDy=0;" parent="1" source="6lcj-8eWFZH5m0sCkd4W-14" target="6lcj-8eWFZH5m0sCkd4W-28" edge="1">
          <mxGeometry relative="1" as="geometry" />
        </mxCell>
        <mxCell id="6lcj-8eWFZH5m0sCkd4W-14" value="&lt;font&gt;passenger&lt;/font&gt;" style="rounded=1;whiteSpace=wrap;html=1;fillColor=#ffcd28;strokeColor=#d79b00;fontStyle=0;fontSize=10;gradientColor=#ffa500;" parent="1" vertex="1">
          <mxGeometry x="320" y="220" width="120" height="20" as="geometry" />
        </mxCell>
        <mxCell id="6lcj-8eWFZH5m0sCkd4W-37" style="edgeStyle=orthogonalEdgeStyle;rounded=0;orthogonalLoop=1;jettySize=auto;html=1;entryX=0;entryY=0.5;entryDx=0;entryDy=0;" parent="1" source="6lcj-8eWFZH5m0sCkd4W-15" target="6lcj-8eWFZH5m0sCkd4W-29" edge="1">
          <mxGeometry relative="1" as="geometry" />
        </mxCell>
        <mxCell id="6lcj-8eWFZH5m0sCkd4W-15" value="&lt;font&gt;ticket&lt;/font&gt;" style="rounded=1;whiteSpace=wrap;html=1;fillColor=#ffcd28;strokeColor=#d79b00;fontStyle=0;fontSize=10;gradientColor=#ffa500;" parent="1" vertex="1">
          <mxGeometry x="320" y="303" width="120" height="20" as="geometry" />
        </mxCell>
        <mxCell id="6lcj-8eWFZH5m0sCkd4W-36" style="edgeStyle=orthogonalEdgeStyle;rounded=0;orthogonalLoop=1;jettySize=auto;html=1;entryX=0;entryY=0.5;entryDx=0;entryDy=0;" parent="1" source="6lcj-8eWFZH5m0sCkd4W-16" target="6lcj-8eWFZH5m0sCkd4W-30" edge="1">
          <mxGeometry relative="1" as="geometry" />
        </mxCell>
        <mxCell id="6lcj-8eWFZH5m0sCkd4W-16" value="&lt;font&gt;flight&lt;/font&gt;" style="rounded=1;whiteSpace=wrap;html=1;fillColor=#ffcd28;strokeColor=#d79b00;fontStyle=0;fontSize=10;gradientColor=#ffa500;" parent="1" vertex="1">
          <mxGeometry x="320" y="263" width="120" height="20" as="geometry" />
        </mxCell>
        <mxCell id="6lcj-8eWFZH5m0sCkd4W-26" value="&lt;font style=&quot;font-size: 14px;&quot;&gt;Silver Layer&lt;/font&gt;" style="rounded=1;whiteSpace=wrap;html=1;fillColor=#f5f5f5;strokeColor=#666666;gradientColor=#b3b3b3;fontStyle=1" parent="1" vertex="1">
          <mxGeometry x="590" y="130" width="120" height="20" as="geometry" />
        </mxCell>
        <mxCell id="6lcj-8eWFZH5m0sCkd4W-27" value="" style="rounded=1;whiteSpace=wrap;html=1;fillColor=none;strokeColor=#666666;gradientColor=#b3b3b3;" parent="1" vertex="1">
          <mxGeometry x="550" y="162" width="200" height="318" as="geometry" />
        </mxCell>
        <mxCell id="6lcj-8eWFZH5m0sCkd4W-50" style="edgeStyle=orthogonalEdgeStyle;rounded=0;orthogonalLoop=1;jettySize=auto;html=1;entryX=0;entryY=0.5;entryDx=0;entryDy=0;jumpStyle=arc;" parent="1" source="6lcj-8eWFZH5m0sCkd4W-28" target="6lcj-8eWFZH5m0sCkd4W-43" edge="1">
          <mxGeometry relative="1" as="geometry" />
        </mxCell>
        <mxCell id="YMN9jpiuJs0Im6TFIcbc-7" style="edgeStyle=orthogonalEdgeStyle;rounded=0;orthogonalLoop=1;jettySize=auto;html=1;entryX=0;entryY=0.5;entryDx=0;entryDy=0;" parent="1" source="6lcj-8eWFZH5m0sCkd4W-28" target="6lcj-8eWFZH5m0sCkd4W-44" edge="1">
          <mxGeometry relative="1" as="geometry" />
        </mxCell>
        <mxCell id="6lcj-8eWFZH5m0sCkd4W-28" value="&lt;font&gt;passenger&lt;/font&gt;" style="rounded=1;whiteSpace=wrap;html=1;fillColor=#f5f5f5;strokeColor=#666666;fontStyle=0;fontSize=10;gradientColor=#b3b3b3;" parent="1" vertex="1">
          <mxGeometry x="590" y="220" width="120" height="20" as="geometry" />
        </mxCell>
        <mxCell id="6lcj-8eWFZH5m0sCkd4W-49" style="edgeStyle=orthogonalEdgeStyle;rounded=0;orthogonalLoop=1;jettySize=auto;html=1;entryX=0;entryY=0.5;entryDx=0;entryDy=0;jumpStyle=arc;" parent="1" source="6lcj-8eWFZH5m0sCkd4W-29" target="6lcj-8eWFZH5m0sCkd4W-44" edge="1">
          <mxGeometry relative="1" as="geometry">
            <Array as="points">
              <mxPoint x="760" y="313" />
              <mxPoint x="760" y="260" />
            </Array>
          </mxGeometry>
        </mxCell>
        <mxCell id="YMN9jpiuJs0Im6TFIcbc-5" style="edgeStyle=orthogonalEdgeStyle;rounded=0;orthogonalLoop=1;jettySize=auto;html=1;entryX=0;entryY=0.5;entryDx=0;entryDy=0;" parent="1" source="6lcj-8eWFZH5m0sCkd4W-29" target="YMN9jpiuJs0Im6TFIcbc-3" edge="1">
          <mxGeometry relative="1" as="geometry" />
        </mxCell>
        <mxCell id="6lcj-8eWFZH5m0sCkd4W-29" value="&lt;font&gt;ticket&lt;/font&gt;" style="rounded=1;whiteSpace=wrap;html=1;fillColor=#f5f5f5;strokeColor=#666666;fontStyle=0;fontSize=10;gradientColor=#b3b3b3;" parent="1" vertex="1">
          <mxGeometry x="590" y="303" width="120" height="20" as="geometry" />
        </mxCell>
        <mxCell id="6lcj-8eWFZH5m0sCkd4W-54" style="edgeStyle=orthogonalEdgeStyle;rounded=0;orthogonalLoop=1;jettySize=auto;html=1;entryX=0;entryY=0.5;entryDx=0;entryDy=0;jumpStyle=arc;" parent="1" source="6lcj-8eWFZH5m0sCkd4W-30" target="6lcj-8eWFZH5m0sCkd4W-45" edge="1">
          <mxGeometry relative="1" as="geometry">
            <Array as="points">
              <mxPoint x="770" y="273" />
              <mxPoint x="770" y="370" />
            </Array>
          </mxGeometry>
        </mxCell>
        <mxCell id="YMN9jpiuJs0Im6TFIcbc-6" style="edgeStyle=orthogonalEdgeStyle;rounded=0;orthogonalLoop=1;jettySize=auto;html=1;" parent="1" source="6lcj-8eWFZH5m0sCkd4W-30" target="6lcj-8eWFZH5m0sCkd4W-42" edge="1">
          <mxGeometry relative="1" as="geometry" />
        </mxCell>
        <mxCell id="6lcj-8eWFZH5m0sCkd4W-30" value="flight" style="rounded=1;whiteSpace=wrap;html=1;fillColor=#f5f5f5;strokeColor=#666666;fontStyle=0;fontSize=10;gradientColor=#b3b3b3;" parent="1" vertex="1">
          <mxGeometry x="590" y="263" width="120" height="20" as="geometry" />
        </mxCell>
        <mxCell id="6lcj-8eWFZH5m0sCkd4W-41" value="&lt;font style=&quot;font-size: 14px;&quot;&gt;Gold Layer&lt;/font&gt;" style="rounded=1;whiteSpace=wrap;html=1;fillColor=#fff2cc;strokeColor=#d6b656;gradientColor=#ffd966;fontStyle=1" parent="1" vertex="1">
          <mxGeometry x="850" y="130" width="120" height="20" as="geometry" />
        </mxCell>
        <mxCell id="6lcj-8eWFZH5m0sCkd4W-42" value="" style="rounded=1;whiteSpace=wrap;html=1;fillColor=none;strokeColor=#d6b656;gradientColor=#ffd966;" parent="1" vertex="1">
          <mxGeometry x="810" y="162" width="200" height="318" as="geometry" />
        </mxCell>
        <mxCell id="6lcj-8eWFZH5m0sCkd4W-43" value="&lt;font&gt;dim_passenger&lt;/font&gt;" style="rounded=1;whiteSpace=wrap;html=1;fillColor=#fff2cc;strokeColor=#d6b656;fontStyle=0;fontSize=10;gradientColor=#ffd966;" parent="1" vertex="1">
          <mxGeometry x="850" y="250" width="120" height="20" as="geometry" />
        </mxCell>
        <mxCell id="6lcj-8eWFZH5m0sCkd4W-44" value="fact_booking" style="rounded=1;whiteSpace=wrap;html=1;fillColor=#fff2cc;strokeColor=#d6b656;fontStyle=0;fontSize=10;gradientColor=#ffd966;" parent="1" vertex="1">
          <mxGeometry x="850" y="192" width="120" height="20" as="geometry" />
        </mxCell>
        <mxCell id="6lcj-8eWFZH5m0sCkd4W-45" value="&lt;font&gt;dim_flight&lt;/font&gt;" style="rounded=1;whiteSpace=wrap;html=1;fillColor=#fff2cc;strokeColor=#d6b656;fontStyle=0;fontSize=10;gradientColor=#ffd966;" parent="1" vertex="1">
          <mxGeometry x="850" y="302" width="120" height="20" as="geometry" />
        </mxCell>
        <mxCell id="YMN9jpiuJs0Im6TFIcbc-8" style="edgeStyle=orthogonalEdgeStyle;rounded=0;orthogonalLoop=1;jettySize=auto;html=1;entryX=0;entryY=0.5;entryDx=0;entryDy=0;" parent="1" source="YMN9jpiuJs0Im6TFIcbc-1" target="6lcj-8eWFZH5m0sCkd4W-44" edge="1">
          <mxGeometry relative="1" as="geometry">
            <Array as="points">
              <mxPoint x="645" y="358" />
              <mxPoint x="645" y="450" />
              <mxPoint x="820" y="450" />
              <mxPoint x="820" y="260" />
            </Array>
          </mxGeometry>
        </mxCell>
        <mxCell id="6xbPqmxdyD-rHQ7TcyRd-2" style="edgeStyle=orthogonalEdgeStyle;rounded=0;orthogonalLoop=1;jettySize=auto;html=1;entryX=0;entryY=0.75;entryDx=0;entryDy=0;" edge="1" parent="1" source="YMN9jpiuJs0Im6TFIcbc-1" target="6xbPqmxdyD-rHQ7TcyRd-1">
          <mxGeometry relative="1" as="geometry" />
        </mxCell>
        <mxCell id="YMN9jpiuJs0Im6TFIcbc-1" value="&lt;font&gt;date&lt;/font&gt;" style="rounded=1;whiteSpace=wrap;html=1;fillColor=#ffcd28;strokeColor=#d79b00;fontStyle=0;fontSize=10;gradientColor=#ffa500;" parent="1" vertex="1">
          <mxGeometry x="320" y="348" width="120" height="20" as="geometry" />
        </mxCell>
        <mxCell id="YMN9jpiuJs0Im6TFIcbc-3" value="&lt;font&gt;dim_ticket&lt;/font&gt;" style="rounded=1;whiteSpace=wrap;html=1;fillColor=#fff2cc;strokeColor=#d6b656;fontStyle=0;fontSize=10;gradientColor=#ffd966;" parent="1" vertex="1">
          <mxGeometry x="850" y="348" width="120" height="20" as="geometry" />
        </mxCell>
        <mxCell id="6xbPqmxdyD-rHQ7TcyRd-1" value="&lt;font&gt;dim_date&lt;/font&gt;" style="rounded=1;whiteSpace=wrap;html=1;fillColor=#fff2cc;strokeColor=#d6b656;fontStyle=0;fontSize=10;gradientColor=#ffd966;" vertex="1" parent="1">
          <mxGeometry x="850" y="400" width="120" height="20" as="geometry" />
        </mxCell>
      </root>
    </mxGraphModel>
  </diagram>
</mxfile>
